# xmcd CD database file
#
# Track frame offsets:
#	150
#	12991
#	23906
#	36578
#	49822
#	62289
#	72606
#	85308
#	96971
#	108972
#	120370
#	133046
#	146790
#	158916
#	170770
#
# Disc length: 2463 seconds
#
# Revision: 0
# Processed by: cddbd v1.4PL0 Copyright (c) Steve Scherf et al.
# Submitted via: CDex 1.40Release
#
DISCID=d4099d0f
DTITLE=Ray Charles - Don't Put All Your Dreams In One Basket
DYEAR=1900
DGENRE=Blues
TTITLE0=Don't Put All Your Dreams In One Basket
TTITLE1=A Sentimental Blues
TTITLE2=Blues Before Sunrise
TTITLE3=Alone In This City
TTITLE4=Rocking Chair Blues
TTITLE5=Ain't That Fine
TTITLE6=Can Anyone Ask For More
TTITLE7=How Long Blues
TTITLE8=I Love You, I Love You
TTITLE9=Let's Have A Ball
TTITLE10=You'll Always Miss The Water
TTITLE11=This Love Of Mine
TTITLE12=I've Had My Fun
TTITLE13=CC Rider
TTITLE14=Late In The Evening
EXTD=ID3G: 0
EXTT0=
EXTT1=
EXTT2=
EXTT3=
EXTT4=
EXTT5=
EXTT6=
EXTT7=
EXTT8=
EXTT9=
EXTT10=
EXTT11=
EXTT12=
EXTT13=
EXTT14=
PLAYORDER=
